<svg preserveAspectRatio="none" width="100%" height="100%" overflow="visible" style="display: block;" viewBox="0 0 89.01 93.38" fill="none" xmlns="http://www.w3.org/2000/svg">
<g id="Layer_1" clip-path="url(#clip0_467_64)">
<g id="Group">
<path id="Vector" d="M16.4961 16.6602L0.496094 44.373L4.50579 46.688L20.5058 18.9752L16.4961 16.6602Z" fill="var(--fill-0, #E6E6E8)" stroke="var(--stroke-0, #050419)" stroke-linecap="round" stroke-linejoin="round"/>
<path id="Vector_2" d="M68.5096 79.0198L28.5096 55.9298L12.5096 65.1598L52.5096 88.2598L68.5096 79.0198Z" fill="var(--fill-0, #FCFCFC)" stroke="var(--stroke-0, #050419)" stroke-linecap="round" stroke-linejoin="round"/>
<path id="Vector_3" d="M12.5098 65.1605V42.0705L4.50977 46.6905L20.5098 18.9805L36.5098 28.2105L28.5098 32.8305V55.9305L12.5098 65.1605Z" fill="var(--fill-0, #050419)" stroke="var(--stroke-0, #050419)" stroke-linecap="round" stroke-linejoin="round"/>
<path id="Vector_4" d="M52.5098 88.2603L12.5098 65.1603V42.0703L8.50977 44.3803V67.4703L52.5098 92.8803V88.2603Z" fill="var(--fill-0, #E6E6E8)" stroke="var(--stroke-0, #050419)" stroke-linecap="round" stroke-linejoin="round"/>
<path id="Vector_5" d="M52.5098 88.2595V92.8795L68.5098 83.6395V79.0195L52.5098 88.2595Z" fill="var(--fill-0, #050419)" stroke="var(--stroke-0, #050419)" stroke-linecap="round" stroke-linejoin="round"/>
</g>
<g id="Group_2">
<path id="Vector_6" d="M20.51 14.36L60.51 37.45V60.54L64.51 62.85V35.14L20.51 9.74V14.36Z" fill="var(--fill-0, #E6E6E8)" stroke="var(--stroke-0, #050419)" stroke-linecap="round" stroke-linejoin="round"/>
<path id="Vector_7" d="M80.51 25.9004V53.6204L88.51 49.0004L68.51 74.4004L56.51 67.4704L64.51 62.8504V35.1404L80.51 25.9004Z" fill="var(--fill-0, #050419)" stroke="var(--stroke-0, #050419)" stroke-linecap="round" stroke-linejoin="round"/>
<path id="Vector_8" d="M80.51 25.9L36.51 0.5L20.51 9.74L64.51 35.14L80.51 25.9Z" fill="var(--fill-0, #FCFCFC)" stroke="var(--stroke-0, #050419)" stroke-linecap="round" stroke-linejoin="round"/>
</g>
<path id="Vector_9" d="M52.5098 65.1591L60.5098 60.5391L64.5098 62.8491L56.5098 67.4691L52.5098 65.1591Z" fill="var(--fill-0, #FCFCFC)" stroke="var(--stroke-0, #050419)" stroke-linecap="round" stroke-linejoin="round"/>
<path id="Vector_10" d="M84.5098 46.6895L88.5098 48.9995L80.5098 53.6195V48.9995L84.5098 46.6895Z" fill="var(--fill-0, #FCFCFC)" stroke="var(--stroke-0, #050419)" stroke-linecap="round" stroke-linejoin="round"/>
</g>
<defs>
<clipPath id="clip0_467_64">
<rect width="89.01" height="93.38" fill="white"/>
</clipPath>
</defs>
</svg>
