<svg preserveAspectRatio="none" width="100%" height="100%" overflow="visible" style="display: block;" viewBox="0 0 81 93.38" fill="none" xmlns="http://www.w3.org/2000/svg">
<g id="Layer_1" clip-path="url(#clip0_467_41)">
<path id="Vector" d="M72.44 50.27C72.43 50.12 72.41 49.97 72.39 49.81C72.36 49.5 72.32 49.2 72.28 48.89C72.25 48.71 72.22 48.52 72.19 48.34C72.14 48.06 72.09 47.78 72.02 47.5C71.98 47.3 71.93 47.1 71.88 46.9C71.81 46.64 71.74 46.37 71.67 46.11C71.61 45.9 71.55 45.69 71.49 45.48C71.41 45.23 71.32 44.98 71.24 44.73C71.16 44.51 71.09 44.29 71.01 44.07C70.94 43.88 70.86 43.7 70.79 43.51C70.56 42.95 70.32 42.39 70.05 41.84C69.99 41.72 69.94 41.6 69.88 41.48C69.72 41.16 69.56 40.85 69.39 40.54C69.33 40.42 69.27 40.31 69.2 40.19C69.02 39.87 68.84 39.55 68.65 39.24C68.59 39.15 68.54 39.06 68.48 38.97C68.27 38.64 68.06 38.31 67.84 37.98C67.81 37.94 67.78 37.89 67.75 37.85C65.73 34.91 63.23 32.4 60.51 30.83C57.33 28.99 54.43 28.78 52.28 29.89H52.26L60 25.41C62.18 24.14 65.18 24.3 68.5 26.21C75.1 30.02 80.5 39.37 80.5 46.99C80.5 47.01 80.5 60.85 80.5 60.85L72.5 65.47V51.61C72.5 51.17 72.48 50.71 72.44 50.26V50.27Z" fill="var(--fill-0, #050419)" stroke="var(--stroke-0, #050419)" stroke-linecap="round" stroke-linejoin="round"/>
<path id="Vector_2" d="M48.5 37.76C48.5 30.14 53.9 27.02 60.5 30.83C67.1 34.64 72.5 43.99 72.5 51.61C72.5 51.63 72.5 65.47 72.5 65.47L60.5 58.54L48.5 51.61V37.75V37.76Z" fill="var(--fill-0, #FCFCFC)" stroke="var(--stroke-0, #050419)" stroke-linecap="round" stroke-linejoin="round"/>
<path id="Vector_3" d="M66.12 26.78H66.1C66.1 26.78 66.11 26.78 66.12 26.78Z" fill="var(--fill-0, #050419)" stroke="var(--stroke-0, #050419)" stroke-linecap="round" stroke-linejoin="round"/>
<path id="Vector_4" d="M68.5 21.6C68.5 16.52 64.9 10.28 60.5 7.74C58.32 6.48 56.34 6.36 54.9 7.17L63.15 2.43C64.57 1.77 66.45 1.94 68.5 3.13C72.9 5.67 76.5 11.91 76.5 16.99C76.5 19.53 75.6 21.32 74.15 22.16L66.18 26.76C67.61 25.92 68.5 24.14 68.5 21.61V21.6Z" fill="var(--fill-0, #050419)" stroke="var(--stroke-0, #050419)" stroke-linecap="round" stroke-linejoin="round"/>
<path id="Vector_5" d="M68.5 21.6C68.5 26.68 64.9 28.76 60.5 26.22C56.1 23.68 52.5 17.44 52.5 12.36C52.5 7.28 56.1 5.2 60.5 7.74C64.9 10.28 68.5 16.52 68.5 21.6Z" fill="var(--fill-0, #FCFCFC)" stroke="var(--stroke-0, #050419)" stroke-linecap="round" stroke-linejoin="round"/>
<path id="Vector_6" d="M42.5 38.52L34.62 33.97C31 31.88 26 32.17 20.5 35.34C9.5 41.69 0.5 57.28 0.5 69.98C0.5 70.08 0.5 88.25 0.5 88.25L8.49 92.87L42.5 38.52Z" fill="var(--fill-0, #FCFCFC)" stroke="var(--stroke-0, #050419)" stroke-linecap="round" stroke-linejoin="round"/>
<path id="Vector_7" d="M48.49 51.51C48.49 38.81 39.49 33.61 28.49 39.96C17.49 46.31 8.49 57.08 8.49 69.78V92.87L48.49 69.78V51.51Z" fill="var(--fill-0, #050419)" stroke="var(--stroke-0, #050419)" stroke-linecap="round" stroke-linejoin="round"/>
<path id="Vector_8" d="M37.8 6.67L30.42 1.71C28.12 0.0199999 24.76 0.0299999 21.02 2.19C14.13 6.17 8.49 15.93 8.49 23.89C8.49 27.25 9.51 29.77 11.19 31.26L18.5 36.29L37.8 6.67Z" fill="var(--fill-0, #FCFCFC)" stroke="var(--stroke-0, #050419)" stroke-linecap="round" stroke-linejoin="round"/>
<path id="Vector_9" d="M27.96 6.81C34.85 2.83 40.49 6.09 40.49 14.04C40.49 21.99 34.86 31.76 27.96 35.74C21.06 39.72 15.43 36.46 15.43 28.51C15.43 20.56 21.06 10.79 27.96 6.81Z" fill="var(--fill-0, #050419)" stroke="var(--stroke-0, #050419)" stroke-linecap="round" stroke-linejoin="round"/>
<path id="Vector_10" d="M40.55 77.67C40.56 77.52 40.58 77.37 40.6 77.21C40.63 76.9 40.67 76.6 40.71 76.29C40.74 76.11 40.77 75.92 40.8 75.74C40.85 75.46 40.9 75.18 40.97 74.9C41.01 74.7 41.06 74.5 41.11 74.3C41.18 74.04 41.25 73.77 41.32 73.51C41.38 73.3 41.44 73.09 41.5 72.88C41.58 72.63 41.67 72.38 41.75 72.13C41.83 71.91 41.9 71.69 41.98 71.47C42.05 71.28 42.13 71.1 42.2 70.91C42.43 70.35 42.67 69.79 42.94 69.24C43 69.12 43.05 69 43.11 68.88C43.27 68.56 43.43 68.25 43.6 67.94C43.66 67.82 43.72 67.71 43.79 67.59C43.97 67.27 44.15 66.95 44.34 66.64C44.4 66.55 44.45 66.46 44.51 66.37C44.72 66.04 44.93 65.71 45.15 65.38C45.18 65.34 45.21 65.29 45.24 65.25C47.26 62.31 49.76 59.8 52.48 58.23C55.66 56.39 58.56 56.18 60.71 57.29H60.73L52.99 52.81C50.81 51.54 47.81 51.7 44.49 53.61C37.89 57.42 32.49 66.77 32.49 74.39V88.25L40.49 92.87V79.01C40.49 78.57 40.51 78.11 40.55 77.66V77.67Z" fill="var(--fill-0, #FCFCFC)" stroke="var(--stroke-0, #050419)" stroke-linecap="round" stroke-linejoin="round"/>
<path id="Vector_11" d="M64.5 65.16C64.5 57.54 59.1 54.42 52.5 58.23C45.9 62.04 40.5 71.39 40.5 79.01V92.87L52.5 85.94L64.5 79.01V65.15V65.16Z" fill="var(--fill-0, #050419)" stroke="var(--stroke-0, #050419)" stroke-linecap="round" stroke-linejoin="round"/>
<path id="Vector_12" d="M46.88 54.18H46.9C46.9 54.18 46.89 54.18 46.88 54.18Z" fill="var(--fill-0, #FCFCFC)" stroke="var(--stroke-0, #050419)" stroke-linecap="round" stroke-linejoin="round"/>
<path id="Vector_13" d="M44.5 49C44.5 43.92 48.1 37.68 52.5 35.14C54.68 33.88 56.66 33.76 58.1 34.57L49.85 29.83C48.43 29.17 46.55 29.34 44.5 30.53C40.1 33.07 36.5 39.31 36.5 44.39C36.5 46.93 37.4 48.72 38.85 49.56L46.82 54.16C45.39 53.32 44.5 51.54 44.5 49.01V49Z" fill="var(--fill-0, #FCFCFC)" stroke="var(--stroke-0, #050419)" stroke-linecap="round" stroke-linejoin="round"/>
<path id="Vector_14" d="M44.5 49C44.5 54.08 48.1 56.16 52.5 53.62C56.9 51.08 60.5 44.84 60.5 39.76C60.5 34.68 56.9 32.6 52.5 35.14C48.1 37.68 44.5 43.92 44.5 49Z" fill="var(--fill-0, #050419)" stroke="var(--stroke-0, #050419)" stroke-linecap="round" stroke-linejoin="round"/>
</g>
<defs>
<clipPath id="clip0_467_41">
<rect width="81" height="93.38" fill="white"/>
</clipPath>
</defs>
</svg>
